<svg width="218px" height="218px" viewBox="0 0 218 218" version="1.1" xmlns="http://www.w3.org/2000/svg" xmlns:xlink="http://www.w3.org/1999/xlink">
    <!-- Generator: Sketch 50.2 (55047) - http://www.bohemiancoding.com/sketch -->
    <desc>Created with Sketch.</desc>
    <defs>
        <rect id="path-1" x="0" y="0" width="218" height="218" rx="5"></rect>
        <linearGradient x1="100%" y1="100%" x2="-20.0840359%" y2="-10.8778045%" id="linearGradient-3">
            <stop stop-color="#FFFFFF" offset="0%"></stop>
            <stop stop-color="#000000" offset="100%"></stop>
        </linearGradient>
    </defs>
    <g id="Symbols" stroke="none" stroke-width="1" fill="none" fill-rule="evenodd">
        <g id="Logo" transform="translate(-28.000000, -16.000000)">
            <g id="M" transform="translate(28.000000, 16.000000)">
                <mask id="mask-2" fill="white">
                    <use xlink:href="#path-1"></use>
                </mask>
                <use id="Mask" fill="#DE8B9D" xlink:href="#path-1"></use>
                <path d="M155.392,25.784 C155.97867,26.7813383 156.096002,28.1013251 155.744,29.744 C155.509332,30.9173392 155.216002,32.0906608 154.864,33.264 L153.808,36.784 C152.751995,39.6000141 151.666672,42.4159859 150.552,45.232 C149.437328,48.0480141 148.352005,50.8639859 147.296,53.68 C144.949322,59.7813638 142.778677,65.9413022 140.784,72.16 C138.789323,78.3786978 136.794677,84.6559683 134.8,90.992 C130.458645,104.720069 126.410685,118.506597 122.656,132.352 C118.901315,146.197403 115.440016,160.218596 112.272,174.416 C111.68533,177.232014 111.09867,180.077319 110.512,182.952 C109.92533,185.826681 109.397336,188.730652 108.928,191.664 C108.928,192.016002 108.898667,192.367998 108.84,192.72 C108.781333,193.072002 108.752,193.423998 108.752,193.776 C108.986668,194.714671 108.693337,195.359998 107.872,195.712 C106.463993,196.416004 104.997341,196.416004 103.472,195.712 C102.767996,195.359998 102.416,194.773337 102.416,193.952 L102.416,191.84 C102.416,191.135996 102.474666,190.432004 102.592,189.728 C102.944002,186.794652 103.41333,183.920014 104,181.104 L105.76,172.656 C111.626696,145.669198 118.138631,119.15213 125.296,93.104 C127.642678,84.4212899 130.282652,75.8853753 133.216,67.496 C136.149348,59.1066247 139.317316,50.8053744 142.72,42.592 C142.837334,42.3573322 142.896,42.0640018 142.896,41.712 L142.368,42.24 C138.261313,47.8720282 134.213353,53.4453058 130.224,58.96 C126.234647,64.4746942 122.362685,70.165304 118.608,76.032 C115.087982,81.3120264 111.597351,86.5626406 108.136,91.784 C104.674649,97.0053594 101.242684,102.373306 97.84,107.888 C95.2586538,112.229355 92.7946784,116.599978 90.448,121 C88.1013216,125.400022 85.7546784,129.829311 83.408,134.288 C82.4693286,136.282677 81.296007,138.335989 79.888,140.448 C79.4186643,141.152004 79.0666678,141.621332 78.832,141.856 C77.306659,143.616009 75.4880106,144.026671 73.376,143.088 C72.4373286,142.50133 71.9093339,141.621339 71.792,140.448 C71.792,139.391995 71.8506661,138.336005 71.968,137.28 C72.0853339,136.223995 72.2613322,135.168005 72.496,134.112 C73.3173374,129.418643 74.2559947,124.784023 75.312,120.208 C76.3680053,115.631977 77.5413269,111.056023 78.832,106.48 C81.4133462,96.3892829 84.141319,86.4453823 87.016,76.648 C89.890681,66.8506177 93.0293163,57.0240493 96.432,47.168 C96.578667,46.6986661 96.608,46.5226678 96.608,46.288 C95.4933286,47.696007 94.7306696,49.0453269 94.144,50.336 C84.7572864,67.1147506 75.7813762,84.0105816 67.216,101.024 C64.1653181,107.125364 61.2906802,113.226636 58.592,119.328 C55.8933198,125.429364 53.3706784,131.706634 51.024,138.16 C50.2026626,140.272011 49.4106705,142.413322 48.648,144.584 C47.8853295,146.754678 47.0933374,148.954656 46.272,151.184 L45.216,153.824 C44.8639982,154.880005 44.2186714,155.466666 43.28,155.584 C42.2239947,155.818668 41.3440035,155.701336 40.64,155.232 C40.1706643,154.997332 59.237331,177.399165 97.84,222.4375 L221.707031,222.4375 L221.707031,114.224 C177.105897,54.5991078 155.000887,25.1191078 155.392,25.784 Z" fill="url(#linearGradient-3)" style="mix-blend-mode: multiply;" opacity="0.167299107" mask="url(#mask-2)"></path>
            </g>
            <path d="M122.144,66.336 C112.757286,83.1147506 103.781376,100.010582 95.216,117.024 C92.1653181,123.125364 89.2906802,129.226636 86.592,135.328 C83.8933198,141.429364 81.3706784,147.706634 79.024,154.16 C78.2026626,156.272011 77.4106705,158.413322 76.648,160.584 C75.8853295,162.754678 75.0933374,164.954656 74.272,167.184 L73.216,169.824 C72.8639982,170.880005 72.2186714,171.466666 71.28,171.584 C70.2239947,171.818668 69.3440035,171.701336 68.64,171.232 C67.9359965,170.879998 67.6426661,170.352004 67.76,169.648 C67.8773339,168.943996 67.965333,168.21067 68.024,167.448 C68.082667,166.68533 68.2293322,165.952004 68.464,165.248 C69.7546731,158.794634 71.1919921,152.370699 72.776,145.976 C74.3600079,139.581301 75.9733251,133.157366 77.616,126.704 C80.4320141,116.026613 83.3946511,105.408053 86.504,94.848 C89.6133489,84.2879472 92.8693163,73.7867189 96.272,63.344 C97.2106714,60.6453198 98.1786617,57.9760132 99.176,55.336 C100.173338,52.6959868 101.141329,50.0266802 102.08,47.328 C102.432002,46.1546608 102.813331,45.0106722 103.224,43.896 C103.634669,42.7813278 104.015998,41.6960053 104.368,40.64 C104.837336,39.4666608 105.541329,39.1146643 106.48,39.584 C108.005341,40.1706696 108.592002,41.4026573 108.24,43.28 L107.184,47.504 C106.831998,48.912007 106.421336,50.319993 105.952,51.728 C103.25332,60.7627118 100.584013,69.7386221 97.944,78.656 C95.3039868,87.5733779 92.8106784,96.6079542 90.464,105.76 L82.544,134.8 C82.397333,135.269334 82.4266661,135.445332 82.544,135.68 C82.544,135.562666 82.6613322,135.386668 82.896,135.152 C85.9466819,128.346633 89.1733163,121.688033 92.576,115.176 C95.9786837,108.663967 99.4399824,102.1227 102.96,95.552 C107.066687,87.9252952 111.14398,80.3867039 115.192,72.936 C119.24002,65.4852961 123.317313,57.9467048 127.424,50.32 L131.648,42.576 C131.882668,42.3413322 132.117332,41.9893357 132.352,41.52 C132.821336,40.9333304 133.407996,40.7573322 134.112,40.992 C134.933337,41.4613357 135.578664,42.0186634 136.048,42.664 C136.517336,43.3093366 136.576002,44.2773269 136.224,45.568 C135.989332,46.5066714 135.725335,47.3866626 135.432,48.208 C135.138665,49.0293374 134.874668,49.8506626 134.64,50.672 C130.650647,62.1707242 126.984017,73.6986089 123.64,85.256 C120.295983,96.8133911 117.040016,108.517274 113.872,120.368 C112.581327,125.178691 111.320006,129.959976 110.088,134.712 C108.855994,139.464024 107.712005,144.303975 106.656,149.232 C106.538666,149.466668 106.538666,149.818664 106.656,150.288 C106.773334,150.053332 106.890666,149.848001 107.008,149.672 C107.125334,149.495999 107.242666,149.290668 107.36,149.056 C109.120009,145.887984 110.850658,142.720016 112.552,139.552 C114.253342,136.383984 116.042657,133.274682 117.92,130.224 C121.674685,123.535967 125.634646,117.082698 129.8,110.864 C133.965354,104.645302 138.159979,98.4266978 142.384,92.208 C147.312025,85.1679648 152.181309,78.1573682 156.992,71.176 C161.802691,64.1946318 166.671975,57.1840352 171.6,50.144 C172.538671,48.8533269 173.477329,47.504007 174.416,46.096 L177.232,41.872 C177.466668,41.5199982 177.759998,41.1680018 178.112,40.816 C178.464002,40.4639982 178.757332,40.1120018 178.992,39.76 C179.57867,39.0559965 180.399995,38.9386643 181.456,39.408 C182.160004,39.9946696 182.80533,40.7866617 183.392,41.784 C183.97867,42.7813383 184.096002,44.1013251 183.744,45.744 C183.509332,46.9173392 183.216002,48.0906608 182.864,49.264 L181.808,52.784 C180.751995,55.6000141 179.666672,58.4159859 178.552,61.232 C177.437328,64.0480141 176.352005,66.8639859 175.296,69.68 C172.949322,75.7813638 170.778677,81.9413022 168.784,88.16 C166.789323,94.3786978 164.794677,100.655968 162.8,106.992 C158.458645,120.720069 154.410685,134.506597 150.656,148.352 C146.901315,162.197403 143.440016,176.218596 140.272,190.416 C139.68533,193.232014 139.09867,196.077319 138.512,198.952 C137.92533,201.826681 137.397336,204.730652 136.928,207.664 C136.928,208.016002 136.898667,208.367998 136.84,208.72 C136.781333,209.072002 136.752,209.423998 136.752,209.776 C136.986668,210.714671 136.693337,211.359998 135.872,211.712 C134.463993,212.416004 132.997341,212.416004 131.472,211.712 C130.767996,211.359998 130.416,210.773337 130.416,209.952 L130.416,207.84 C130.416,207.135996 130.474666,206.432004 130.592,205.728 C130.944002,202.794652 131.41333,199.920014 132,197.104 L133.76,188.656 C139.626696,161.669198 146.138631,135.15213 153.296,109.104 C155.642678,100.42129 158.282652,91.8853753 161.216,83.496 C164.149348,75.1066247 167.317316,66.8053744 170.72,58.592 C170.837334,58.3573322 170.896,58.0640018 170.896,57.712 L170.368,58.24 C166.261313,63.8720282 162.213353,69.4453058 158.224,74.96 C154.234647,80.4746942 150.362685,86.165304 146.608,92.032 C143.087982,97.3120264 139.597351,102.562641 136.136,107.784 C132.674649,113.005359 129.242684,118.373306 125.84,123.888 C123.258654,128.229355 120.794678,132.599978 118.448,137 C116.101322,141.400022 113.754678,145.829311 111.408,150.288 C110.469329,152.282677 109.296007,154.335989 107.888,156.448 C107.418664,157.152004 107.066668,157.621332 106.832,157.856 C105.306659,159.616009 103.488011,160.026671 101.376,159.088 C100.437329,158.50133 99.9093339,157.621339 99.792,156.448 C99.792,155.391995 99.8506661,154.336005 99.968,153.28 C100.085334,152.223995 100.261332,151.168005 100.496,150.112 C101.317337,145.418643 102.255995,140.784023 103.312,136.208 C104.368005,131.631977 105.541327,127.056023 106.832,122.48 C109.413346,112.389283 112.141319,102.445382 115.016,92.648 C117.890681,82.8506177 121.029316,73.0240493 124.432,63.168 C124.578667,62.6986661 124.608,62.5226678 124.608,62.288 C123.493329,63.696007 122.73067,65.0453269 122.144,66.336 Z" id="M" fill="#FFFFFF"></path>
        </g>
    </g>
</svg>